<?xml version="1.0" encoding="UTF-8"?>
<!DOCTYPE svg PUBLIC "-//W3C//DTD SVG 1.1//EN" "http://www.w3.org/Graphics/SVG/1.1/DTD/svg11.dtd">
<!-- Creator: CorelDRAW -->
<svg xmlns="http://www.w3.org/2000/svg" xml:space="preserve" width="42.3332mm" height="42.3332mm" style="shape-rendering:geometricPrecision; text-rendering:geometricPrecision; image-rendering:optimizeQuality; fill-rule:evenodd; clip-rule:evenodd"
viewBox="0 0 42.3332 42.3332"
 xmlns:xlink="http://www.w3.org/1999/xlink">
 <defs>
  <style type="text/css">
   <![CDATA[
    .fil1 {fill:#008DD2}
    .fil3 {fill:#434242}
    .fil0 {fill:#E31E24}
    .fil2 {fill:#FECC00}
   ]]>
  </style>
 </defs>
 <g id="Слой_x0020_1">
  <metadata id="CorelCorpID_0Corel-Layer"/>
  <g id="_351729352">
   <path id="_351586496" class="fil0" d="M28.361 4.3379c5.6116,0 10.1624,4.5508 10.1624,10.1623 0,5.6115 -4.5508,10.1623 -10.1624,10.1623 -1.6249,0 -3.1599,-0.3826 -4.5223,-1.061 2.4124,-2.0997 3.9672,-5.3954 3.9672,-9.1013 0,-3.706 -1.5548,-7.0023 -3.9673,-9.102 1.3622,-0.6785 2.8975,-1.0603 4.5224,-1.0603z"/>
   <path id="_351514216" class="fil1" d="M15.327 17.2037c-5.6116,0 -10.1624,4.5508 -10.1624,10.1623 0,5.6115 4.5508,10.1623 10.1624,10.1623 1.6249,0 3.1599,-0.3826 4.5223,-1.061 -2.4124,-2.0997 -3.9672,-5.3953 -3.9672,-9.1013 0,-3.706 1.5548,-7.0022 3.9673,-9.1019 -1.3622,-0.6785 -2.8975,-1.0604 -4.5224,-1.0604z"/>
   <path id="_351514096" class="fil2" d="M5.1646 14.5002c0,-5.6115 4.5508,-10.1623 10.1624,-10.1623 5.6114,0 10.1622,4.5508 10.1622,10.1623 0,1.6249 -0.3826,3.16 -1.061,4.5223 -2.0997,-2.4124 -5.3953,-3.9672 -9.1012,-3.9672 -3.7061,0 -7.0023,1.5548 -9.102,3.9673 -0.6785,-1.3622 -1.0604,-2.8975 -1.0604,-4.5224z"/>
   <path id="_351729616" class="fil3" d="M18.1988 27.3659c0,5.6116 4.5508,10.1624 10.1623,10.1624 5.6115,0 10.1623,-4.5508 10.1623,-10.1624 0,-1.6249 -0.3826,-3.1599 -1.061,-4.5223 -2.0997,2.4124 -5.3953,3.9672 -9.1013,3.9672 -3.706,0 -7.0022,-1.5548 -9.1019,-3.9673 -0.6785,1.3622 -1.0604,2.8975 -1.0604,4.5224z"/>
  </g>
 </g>
</svg>
